<svg width="800" height="755" viewBox="0 0 800 755" fill="none" xmlns="http://www.w3.org/2000/svg">
<path d="M474.929 671.111H325.3C325.3 671.111 -20.2431 659.455 1.30916 694.423C22.8614 729.215 135.922 715.969 114.194 729.215C92.6413 742.461 172.314 752.527 333.426 754.117C349.148 754.293 365.048 754.47 381.124 754.647V755C387.307 755 393.666 754.823 399.849 754.823C406.032 754.823 412.392 755 418.575 755V754.647C434.651 754.47 450.727 754.293 466.273 754.117C627.385 752.527 707.234 742.461 685.505 729.215C663.953 715.969 776.837 729.215 798.389 694.423C820.472 659.455 474.929 671.111 474.929 671.111Z" fill="#C3E3F3"/>
<path d="M367.344 649.388H317.35L311.521 712.967H367.344V649.388Z" fill="#FF7A00"/>
<path d="M357.098 627.842C357.098 627.842 360.808 644.443 342.083 644.443H351.092C351.092 644.443 365.931 644.267 365.931 630.491L357.098 627.842Z" fill="#EDAB02"/>
<path d="M341.906 644.443C341.906 644.443 339.963 634.73 354.449 627.842C356.038 627.136 357.805 627.136 359.395 627.666L365.931 630.491C365.931 630.491 352.152 635.083 346.499 644.443H341.906Z" fill="#FFB800"/>
<path d="M326.89 627.842C326.89 627.842 323.18 644.443 341.906 644.443H332.896C332.896 644.443 318.057 644.267 318.057 630.491L326.89 627.842Z" fill="#EDAB02"/>
<path d="M342.082 644.443C341.022 649.212 345.086 635.26 329.54 627.842C327.95 627.136 326.183 627.136 324.593 627.666L318.057 630.491C318.057 630.491 331.836 635.083 337.489 644.443H342.082Z" fill="#FFB800"/>
<path d="M345.086 643.737C345.086 646.386 343.672 648.505 342.082 648.505C340.316 648.505 339.079 646.386 339.079 643.737C339.079 641.088 340.492 638.968 342.082 638.968C343.672 638.968 345.086 641.088 345.086 643.737Z" fill="#EDAB02"/>
<path d="M372.467 644.443H311.344V655.393H372.467V644.443Z" fill="#FF8C2C"/>
<path d="M349.149 644.443H334.839V713.144H349.149V644.443Z" fill="#FFB800"/>
<path d="M274.422 610.711C274.422 610.711 277.779 625.546 260.996 625.546H269.122C269.122 625.546 282.372 625.369 282.372 613.183L274.422 610.711Z" fill="#E76303"/>
<path d="M260.819 625.546C260.819 625.546 259.053 616.892 272.126 610.711C273.539 610.005 275.129 610.005 276.542 610.534L282.372 613.007C282.372 613.007 270.006 617.069 264.883 625.37L260.819 625.546Z" fill="#FF7A00"/>
<path d="M247.57 610.711C247.57 610.711 244.214 625.546 260.996 625.546H252.87C252.87 625.546 239.62 625.369 239.62 613.007L247.57 610.711Z" fill="#E76303"/>
<path d="M260.996 625.546C260.996 625.546 262.763 616.892 249.867 610.711C248.454 610.005 246.864 610.005 245.45 610.534L239.621 613.007C239.621 613.007 251.987 617.069 256.933 625.546H260.996Z" fill="#FF7A00"/>
<path d="M263.646 625.016C263.646 627.312 262.409 629.255 260.819 629.255C259.23 629.255 258.17 627.312 258.17 625.016C258.17 622.72 259.406 620.778 260.996 620.778C262.409 620.778 263.646 622.544 263.646 625.016Z" fill="#E76303"/>
<path d="M291.028 625.546H231.494L227.785 712.967H284.668L291.028 625.546Z" fill="#97D700"/>
<path d="M294.208 625.546H228.315L227.078 635.613H293.678L294.208 625.546Z" fill="#0DB477"/>
<path d="M147.052 575.855C147.052 575.855 150.938 592.809 131.683 592.809H141.046C141.046 592.809 156.238 592.633 156.238 578.504L147.052 575.855Z" fill="#EDAB02"/>
<path d="M131.683 592.809C131.683 592.809 129.74 582.919 144.402 575.855C145.992 575.149 147.759 575.149 149.349 575.678L156.062 578.504C156.062 578.504 141.929 583.096 136.276 592.809H131.683Z" fill="#FFB800"/>
<path d="M116.314 575.855C116.314 575.855 112.427 592.809 131.683 592.809H122.32C122.32 592.809 107.127 592.633 107.127 578.504L116.314 575.855Z" fill="#EDAB02"/>
<path d="M131.683 592.809C131.683 592.809 133.626 582.919 118.963 575.855C117.374 575.149 115.607 575.149 114.017 575.678L107.304 578.504C107.304 578.504 121.437 583.096 127.09 592.809H131.683Z" fill="#FFB800"/>
<path d="M134.863 592.103C134.863 594.752 133.449 597.048 131.683 597.048C129.916 597.048 128.503 594.929 128.503 592.103C128.503 589.454 129.916 587.158 131.683 587.158C133.449 587.335 134.863 589.454 134.863 592.103Z" fill="#EDAB02"/>
<path d="M163.658 667.868H102.004L106.068 592.809H159.595L163.658 667.868Z" fill="#FF7A00"/>
<path d="M162.068 592.809H102.711V601.993H162.068V592.809Z" fill="#FF8C2C"/>
<path d="M137.336 592.809H126.03V667.868H137.336V592.809Z" fill="#FFB800"/>
<path d="M218.598 672.171H84.1617V712.967H218.598V672.171Z" fill="#78BE20"/>
<path d="M96.7045 689.125C97.7777 689.125 98.6477 688.255 98.6477 687.182C98.6477 686.109 97.7777 685.239 96.7045 685.239C95.6312 685.239 94.7612 686.109 94.7612 687.182C94.7612 688.255 95.6312 689.125 96.7045 689.125Z" fill="white"/>
<path d="M135.216 687.183C135.216 688.242 134.332 689.125 133.272 689.125C132.213 689.125 131.329 688.242 131.329 687.183C131.329 686.123 132.213 685.24 133.272 685.24C134.332 685.063 135.216 685.946 135.216 687.183Z" fill="white"/>
<path d="M169.664 689.125C170.737 689.125 171.607 688.255 171.607 687.183C171.607 686.11 170.737 685.24 169.664 685.24C168.591 685.24 167.721 686.11 167.721 687.183C167.721 688.255 168.591 689.125 169.664 689.125Z" fill="white"/>
<path d="M207.999 687.183C207.999 688.242 207.116 689.125 206.056 689.125C204.996 689.125 204.113 688.242 204.113 687.183C204.113 686.123 204.996 685.24 206.056 685.24C207.116 685.063 207.999 685.946 207.999 687.183Z" fill="white"/>
<path d="M117.02 696.543C117.02 697.603 116.137 698.486 115.077 698.486C114.017 698.486 113.134 697.603 113.134 696.543C113.134 695.483 114.017 694.6 115.077 694.6C116.137 694.6 117.02 695.483 117.02 696.543Z" fill="white"/>
<path d="M151.469 698.486C152.542 698.486 153.412 697.616 153.412 696.543C153.412 695.47 152.542 694.6 151.469 694.6C150.395 694.6 149.525 695.47 149.525 696.543C149.525 697.616 150.395 698.486 151.469 698.486Z" fill="white"/>
<path d="M187.86 698.486C188.933 698.486 189.803 697.616 189.803 696.543C189.803 695.47 188.933 694.6 187.86 694.6C186.787 694.6 185.917 695.47 185.917 696.543C185.917 697.616 186.787 698.486 187.86 698.486Z" fill="white"/>
<path d="M96.7045 708.022C97.7777 708.022 98.6477 707.153 98.6477 706.08C98.6477 705.007 97.7777 704.137 96.7045 704.137C95.6312 704.137 94.7612 705.007 94.7612 706.08C94.7612 707.153 95.6312 708.022 96.7045 708.022Z" fill="white"/>
<path d="M135.216 706.08C135.216 707.139 134.332 708.022 133.272 708.022C132.213 708.022 131.329 707.139 131.329 706.08C131.329 705.02 132.213 704.137 133.272 704.137C134.332 704.137 135.216 705.02 135.216 706.08Z" fill="white"/>
<path d="M169.664 708.022C170.737 708.022 171.607 707.153 171.607 706.08C171.607 705.007 170.737 704.137 169.664 704.137C168.591 704.137 167.721 705.007 167.721 706.08C167.721 707.153 168.591 708.022 169.664 708.022Z" fill="white"/>
<path d="M207.999 706.08C207.999 707.139 207.116 708.022 206.056 708.022C204.996 708.022 204.113 707.139 204.113 706.08C204.113 705.02 204.996 704.137 206.056 704.137C207.116 704.137 207.999 705.02 207.999 706.08Z" fill="white"/>
<path opacity="0.5" d="M84.1617 672.171V682.591L218.422 685.593L218.598 672.171H84.1617Z" fill="#077D52"/>
<path d="M222.485 665.813H80.8054V678.705H222.485V665.813Z" fill="#1E9B6D"/>
<path d="M655.12 581.041C655.12 581.041 660.596 605.413 633.038 605.413H646.287C646.287 605.413 668.016 605.236 668.016 584.926L655.12 581.041Z" fill="#EDAB02"/>
<path d="M633.038 605.413C633.038 605.413 630.211 591.108 651.41 581.041C653.707 579.981 656.18 579.981 658.477 580.864L668.193 584.926C668.193 584.926 648.054 591.637 639.751 605.413H633.038Z" fill="#FFB800"/>
<path d="M610.956 581.041C610.956 581.041 605.479 605.413 633.038 605.413H619.789C619.789 605.413 598.06 605.236 598.06 584.926L610.956 581.041Z" fill="#EDAB02"/>
<path d="M633.038 605.413C633.038 605.413 635.864 591.108 614.665 581.041C612.369 579.981 609.896 579.981 607.599 580.864L597.883 584.926C597.883 584.926 618.022 591.637 626.325 605.413H633.038Z" fill="#FFB800"/>
<path d="M637.455 604.353C637.455 608.239 635.511 611.418 633.038 611.418C630.565 611.418 628.622 608.239 628.622 604.353C628.622 600.468 630.565 597.289 633.038 597.289C635.511 597.289 637.455 600.468 637.455 604.353Z" fill="#EDAB02"/>
<path d="M678.792 712.967H590.463L596.293 605.413H672.962L678.792 712.967Z" fill="#FF7A00"/>
<path d="M676.673 605.413H591.524V618.482H676.673V605.413Z" fill="#FF8C2C"/>
<path d="M641.164 605.413H624.911V713.144H641.164V605.413Z" fill="#FFB800"/>
<path d="M424.228 545.013H374.058V661.398C391.37 667.579 408.153 667.756 424.228 661.398V545.013Z" fill="#4C200D"/>
<path opacity="0.5" d="M424.228 612.124V557.905H374.058V602.764C380.771 599.055 388.367 594.993 396.14 587.222C406.386 597.466 416.455 608.592 424.228 612.124Z" fill="#2E1206"/>
<path d="M661.48 510.044C629.151 510.044 603.183 497.858 583.574 483.023C590.287 480.198 594.88 475.606 594.88 475.606C571.208 472.25 557.958 458.828 553.542 453.706C553.012 453 552.482 452.47 551.952 451.764L551.775 451.587C542.412 439.401 531.636 421.034 531.636 421.034H266.296C266.296 421.034 251.987 447.172 234.851 465.363C229.021 469.778 213.476 479.315 190.51 477.725C190.51 477.725 196.163 486.202 204.819 490.264C186.624 501.744 164.011 510.221 136.983 510.221C136.983 510.221 139.456 530.001 195.28 530.001L174.257 563.027C174.257 563.027 201.816 566.029 221.072 546.779L198.283 575.566C198.283 575.566 237.324 575.566 269.653 559.318L251.104 583.337C251.104 583.337 282.549 588.459 300.391 570.798L285.552 594.287C285.552 594.287 325.3 604.706 362.928 567.089L355.685 586.869C355.685 586.869 377.061 584.396 399.32 562.32C421.578 584.573 442.954 586.869 442.954 586.869L435.711 567.089C473.163 604.53 512.734 593.58 512.734 593.58L498.248 570.621C515.914 588.282 547.535 583.16 547.535 583.16L528.986 559.142C561.491 575.389 600.356 575.389 600.356 575.389L577.567 546.602C596.823 565.853 624.382 562.85 624.382 562.85L603.183 529.825C659.007 529.825 661.48 510.044 661.48 510.044Z" fill="#02332F"/>
<path d="M259.583 465.716C259.583 465.716 241.564 481.434 221.072 481.434C221.072 481.434 225.488 489.381 235.735 488.145C235.735 488.145 211.532 511.634 184.857 513.047C184.857 513.047 201.816 519.581 219.482 515.166L200.58 543.07C200.58 543.07 224.428 537.949 240.858 523.82C240.858 523.82 245.981 535.653 263.47 539.008C263.47 539.008 252.694 512.164 254.107 500.861C254.107 500.861 259.407 507.219 269.653 503.157C257.64 486.732 259.583 465.716 259.583 465.716Z" fill="#003834"/>
<path d="M536.759 464.479C536.759 464.479 557.428 476.489 570.148 476.489C570.148 476.489 567.145 482.494 563.435 482.494C563.435 482.494 573.504 502.98 596.647 507.572C596.647 507.572 594.35 515.873 579.511 512.34C579.511 512.34 580.571 528.235 600.533 541.834C600.533 541.834 581.984 542.187 563.788 523.467C563.788 523.467 560.785 531.767 545.769 529.471C545.769 529.471 553.719 520.818 552.129 504.04C552.129 504.04 548.419 515.343 532.52 513.4C533.05 512.694 546.122 497.329 543.119 484.26C543.119 484.26 539.939 492.03 533.58 490.971C533.403 490.971 541.529 478.961 536.759 464.479Z" fill="#003834"/>
<path d="M361.515 512.87C350.032 514.636 342.259 510.574 342.259 510.574C341.023 531.591 358.865 536.889 358.865 536.889C358.865 536.889 342.083 545.366 330.777 538.655C319.824 559.671 281.842 564.087 281.842 564.087C295.445 554.903 310.991 532.297 310.991 532.297C310.991 532.297 297.742 532.12 287.849 525.233C287.849 525.233 308.694 522.937 316.644 503.333C316.644 503.333 308.164 503.51 296.328 496.975C296.328 496.975 328.657 492.207 341.553 471.72C341.553 471.897 345.792 501.744 361.515 512.87Z" fill="#003834"/>
<path d="M439.068 521.877C442.071 534.063 424.758 550.311 424.758 550.311C434.475 550.664 443.661 542.893 443.661 542.893C449.844 566.382 488.709 574.86 488.709 574.86C474.576 565.499 472.456 545.543 472.456 545.543C480.406 553.49 497.718 545.896 497.718 545.896C497.718 545.896 476.166 537.065 472.456 527.352C472.456 527.352 479.876 527.882 486.765 522.23C486.765 522.23 464.86 522.584 460.443 506.865C460.443 506.865 469.453 510.221 478.109 504.746C478.109 504.746 450.374 496.269 444.721 469.071C444.721 469.071 434.475 497.505 421.579 507.219C421.579 507.219 433.415 510.221 438.361 501.92C438.361 501.92 428.468 522.054 416.632 530.884C416.985 530.884 434.298 529.648 439.068 521.877Z" fill="#003834"/>
<path d="M391.37 530.884C391.37 530.884 401.793 547.662 377.944 560.908C377.944 561.084 373.704 538.302 391.37 530.884Z" fill="#003834"/>
<path d="M304.984 461.83C304.984 461.83 308.871 483.553 286.965 487.439C286.965 487.615 282.902 473.663 304.984 461.83Z" fill="#003834"/>
<path d="M515.207 516.226C515.207 516.226 501.074 520.111 500.898 500.508C500.721 500.508 512.557 504.923 515.207 516.226Z" fill="#003834"/>
<path d="M586.4 403.903C564.495 403.903 546.652 391.54 532.343 374.939C543.472 374.233 552.835 365.226 552.835 365.226C528.28 361.694 514.854 347.388 511.144 342.797C495.421 312.95 488.002 283.28 488.002 283.28H399.32H310.637C310.637 283.28 303.571 311.537 288.555 340.677C281.842 346.858 269.829 355.159 251.987 357.632C251.987 357.632 260.996 366.639 272.126 367.345C256.933 387.832 237.148 403.903 212.062 403.903C212.062 403.903 246.334 428.805 264 413.44L238.914 436.929C238.914 436.929 270.889 440.991 281.665 430.218L258.7 454.06C258.7 454.06 298.978 463.773 334.309 428.451L319.47 452.823C319.47 452.823 353.389 450.351 370.878 433.043L356.038 451.587C356.038 451.587 377.767 454.943 399.143 433.573C415.219 458.298 447.017 460.771 447.017 460.771L427.585 432.69C444.897 449.998 472.103 447.349 472.103 447.349L464.153 428.098C499.485 463.42 539.763 453.706 539.763 453.706L516.797 429.864C527.573 440.637 559.548 436.575 559.548 436.575L534.286 413.263C551.952 428.805 586.4 403.903 586.4 403.903Z" fill="#00433E"/>
<path d="M452.14 327.255C452.14 327.255 470.336 343.15 489.945 341.56C489.945 341.56 481.112 352.157 474.399 351.097C474.399 351.097 498.954 366.109 523.157 362.93C523.157 362.93 516.444 376.529 496.481 372.467C496.481 372.467 521.39 395.249 539.409 397.545C539.409 397.545 527.396 409.025 514.5 403.903L533.756 425.626L499.661 411.497C499.661 411.497 503.018 432.16 510.791 437.282C510.791 437.282 474.929 428.275 469.276 403.55C469.276 403.55 466.273 415.206 447.547 416.266C447.547 416.266 462.563 395.249 461.856 378.118C461.856 378.118 453.553 388.891 445.074 390.481C445.074 390.481 459.383 372.467 456.733 357.102C456.733 357.102 453.023 363.813 445.074 365.049C445.074 365.049 455.673 342.267 452.14 327.255Z" fill="#004741"/>
<path d="M354.979 355.336C345.616 360.987 335.546 355.336 335.546 355.336C335.9 366.109 360.632 380.061 360.632 380.061C344.556 385.359 337.136 375.646 337.136 375.646C339.079 389.951 360.985 403.02 360.985 403.02C347.559 403.726 333.956 393.66 333.956 393.66C323.887 419.091 297.565 423.683 297.565 423.683C305.338 414.676 304.631 391.54 304.631 391.54C288.202 403.903 266.826 394.896 266.826 394.896C292.972 385.182 312.757 363.106 312.757 363.106C301.451 366.462 283.962 358.161 283.962 358.161C304.101 358.161 316.467 346.152 316.467 346.152C312.051 350.214 297.035 344.739 297.035 344.739C310.107 342.797 334.133 324.253 334.133 324.253C334.133 324.253 337.313 344.386 354.979 355.336Z" fill="#004741"/>
<path d="M401.263 410.261C401.263 410.261 405.856 427.392 417.515 430.571C417.515 430.571 411.156 412.203 412.746 401.784C412.746 401.784 419.459 406.552 430.765 401.784C430.765 401.784 418.222 396.839 411.156 380.767C411.156 380.767 417.869 386.065 430.412 382.533C408.506 368.934 404.796 340.854 404.796 340.854C404.796 340.854 395.257 362.4 376.001 368.228C380.947 372.996 384.304 374.056 384.304 374.056C384.304 374.056 382.361 382.357 365.931 389.598C374.941 394.189 386.247 390.304 386.247 390.304C386.247 390.304 373.174 410.967 359.218 418.738C376.354 421.917 383.067 412.027 383.067 412.027C383.067 412.027 389.604 420.504 381.477 432.16C395.08 427.922 401.263 410.261 401.263 410.261Z" fill="#004741"/>
<path d="M333.603 443.817C333.603 443.817 349.679 445.406 356.392 427.215C356.392 427.215 341.376 425.626 333.603 443.817Z" fill="#004741"/>
<path d="M421.049 344.033C421.049 344.033 415.749 361.517 431.648 369.111C431.648 369.111 435.535 355.159 421.049 344.033Z" fill="#004741"/>
<path d="M288.379 338.558C306.221 336.968 323.71 334.849 341.023 331.14C358.335 327.432 375.118 322.487 392.43 317.718C396.67 316.482 401.086 315.599 405.503 314.363C409.919 313.48 414.336 312.42 418.752 311.537C427.762 310.124 436.771 308.711 445.781 308.535C463.976 307.828 481.996 310.301 499.308 314.892C499.838 315.069 500.015 315.599 500.015 315.952C499.838 316.305 499.485 316.659 498.955 316.659C481.289 314.716 463.623 313.656 446.134 315.246C428.645 316.835 411.686 320.72 394.55 325.489L381.654 328.844C377.414 329.904 372.998 331.14 368.581 332.2L362.045 333.789L355.509 335.202L348.972 336.615L342.259 337.675C324.417 340.501 306.398 341.207 288.555 339.971C288.202 339.971 287.849 339.618 288.025 339.264C287.849 338.911 288.025 338.558 288.379 338.558Z" fill="#FF7A00"/>
<path opacity="0.4" d="M298.801 318.071C298.801 318.071 308.164 318.601 314.347 313.833L305.514 333.966C305.514 333.966 338.196 332.023 353.035 321.074L350.915 326.548C350.915 326.548 372.468 330.257 382.89 321.603C382.89 321.603 384.657 337.675 377.414 340.854C377.414 340.854 406.209 338.028 416.632 322.486C416.632 322.486 436.418 331.67 451.964 331.493L449.314 321.603C449.314 321.603 463.8 334.672 490.298 329.727L486.235 319.131C486.235 319.131 492.242 321.603 500.721 319.484L477.091 261.203H320.552L298.801 318.071Z" fill="#002321"/>
<path d="M527.573 250.254C508.317 250.254 492.948 238.421 481.289 223.409C491.712 221.996 500.015 213.872 500.015 213.872C499.838 213.872 499.661 213.872 499.485 213.872C480.406 211.047 464.506 197.625 457.44 179.61C453.024 168.308 450.904 160.184 450.904 160.184H399.143H347.382C347.382 160.184 343.496 175.019 335.369 192.856C327.243 210.34 310.991 222.703 292.088 225.529C291.912 225.529 291.735 225.529 291.558 225.529C291.558 225.529 298.271 232.063 307.104 234.536C297.035 243.896 285.022 250.43 270.889 250.43C270.889 250.43 273.186 276.568 300.214 276.568L270.889 298.468C270.889 298.468 309.754 313.303 333.073 289.991L320 316.835C320 316.835 343.496 317.718 365.401 295.642L362.045 308.181C362.045 308.181 374.234 309.064 390.487 298.644C391.723 307.298 392.077 318.425 387.13 322.84C387.13 322.84 403.736 318.425 413.276 303.236C428.291 312.067 443.307 314.892 443.307 314.892L432.885 295.465C454.967 317.542 478.286 316.658 478.286 316.658L462.563 293.699C485.705 316.835 527.396 298.115 527.396 298.115L498.071 276.039C525.277 276.392 527.573 250.254 527.573 250.254Z" fill="#00544C"/>
<path d="M450.374 274.802C466.626 291.05 492.595 290.167 492.595 290.167L468.923 265.265C488.002 265.265 495.775 256.788 495.775 256.788C478.286 251.313 464.506 232.593 456.38 221.996C463.623 220.937 470.336 214.402 470.336 214.402C455.143 212.636 436.771 203.453 431.825 199.391C431.825 199.391 425.641 225.882 416.985 233.476C416.985 233.476 429.881 235.595 433.591 231.887C433.591 231.887 434.298 261.203 417.515 263.323C417.515 263.323 430.235 270.387 439.774 261.38C439.774 261.38 435.711 277.275 425.288 278.864C425.288 278.688 444.544 284.869 450.374 274.802Z" fill="#045951"/>
<path d="M368.404 200.097C358.688 209.457 327.596 222.173 315.584 228.178L331.66 227.118C324.593 233.652 314.347 249.547 292.265 257.671C292.265 257.671 303.748 265.442 322.65 265.442L299.155 288.048C299.155 288.048 318.41 295.995 341.552 274.272C349.325 279.924 345.262 295.642 345.262 295.642C367.344 282.926 360.808 271.447 364.695 264.206C364.695 264.206 374.411 271.27 384.48 264.206C366.815 250.077 365.401 236.125 365.401 236.125C365.401 236.125 374.411 248.134 381.83 244.426C381.83 244.602 366.814 220.23 368.404 200.097Z" fill="#045951"/>
<path d="M380.417 279.041C380.417 279.041 379.357 292.11 373.527 297.408C373.527 297.408 387.837 295.819 391.547 280.807C393.49 273.036 387.307 270.74 387.307 270.74C387.307 270.74 380.947 274.626 380.417 279.041Z" fill="#045951"/>
<path d="M427.231 301.823C427.231 301.823 414.512 299.881 410.979 282.22C411.156 282.22 423.875 278.688 427.231 301.823Z" fill="#045951"/>
<path d="M394.726 228.708C394.726 228.708 381.654 216.875 385.187 204.512C385.187 204.512 397.376 213.696 394.726 228.708Z" fill="#045951"/>
<path opacity="0.4" d="M334.663 195.152C334.663 195.152 341.552 195.505 348.795 191.09L341.906 204.866C341.906 204.866 385.01 202.216 400.026 189.324C400.026 189.324 424.581 209.104 455.143 202.923L449.137 191.267C449.137 191.267 454.292 195.152 464.715 193.209L452.406 170.957H344.033L334.663 195.152Z" fill="#00403A"/>
<path d="M399.143 173.782C412.215 189.501 441.011 190.384 441.011 190.384L430.234 170.074C445.78 185.615 477.049 176.785 477.049 176.785L454.613 161.95C477.579 161.95 480.229 144.465 480.229 144.465C422.108 144.465 399.143 31.9661 399.143 31.9661C399.143 31.9661 376.177 144.465 318.057 144.465C318.057 144.465 320.707 161.95 343.672 161.95L321.237 176.785C321.237 176.785 352.505 185.615 368.051 170.074L357.275 190.384C382.007 190.384 399.143 173.782 399.143 173.782Z" fill="#00645A"/>
<path d="M399.143 153.296C406.209 161.773 418.045 169.191 418.045 169.191L415.749 151.353C424.052 159.654 443.484 161.42 443.484 161.42L428.821 147.115C445.957 151 451.257 146.761 451.257 146.761C415.219 137.401 403.206 89.8935 400.026 72.7625C399.849 71.3497 397.906 71.3497 397.553 72.7625C393.136 89.7169 378.121 136.165 345.792 146.232C345.792 146.232 353.918 152.236 369.288 147.291L356.745 163.363C356.745 163.363 374.057 160.007 382.36 151.53L380.064 168.131C380.24 167.954 392.076 161.773 399.143 153.296Z" fill="#006B60"/>
<path d="M399.143 49.9801L379.711 60.2234L383.42 38.5006L367.521 22.9591L389.427 19.7801L399.143 0L409.036 19.7801L430.941 22.9591L415.042 38.5006L418.752 60.2234L399.143 49.9801Z" fill="#FFBA05"/>
<path opacity="0.4" d="M399.143 35.6749L379.711 60.2234L393.843 31.9661L367.521 22.9591L395.963 25.6082L399.143 0L402.5 25.6082L430.941 22.9591L404.443 31.9661L418.752 60.2234L399.143 35.6749Z" fill="#FFD029"/>
<path d="M390.84 237.715L388.19 229.591L385.717 237.715L377.591 240.364L385.717 242.836L388.19 250.96L390.84 242.836L398.966 240.364L390.84 237.715Z" fill="white"/>
<path d="M410.272 102.786L408.506 97.1345L406.739 102.786L401.263 104.552L406.739 106.318L408.506 111.97L410.272 106.318L415.926 104.552L410.272 102.786Z" fill="white"/>
<path d="M437.124 402.137L435.181 396.309L433.414 402.137L427.585 403.903L433.414 405.846L435.181 411.674L437.124 405.846L442.954 403.903L437.124 402.137Z" fill="white"/>
<path d="M347.382 519.758L344.909 511.634L342.436 519.758L334.133 522.23L342.436 524.879L344.909 533.003L347.382 524.879L355.685 522.23L347.382 519.758Z" fill="white"/>
<path d="M431.825 712.967H366.814C364.695 712.967 363.105 711.378 362.751 709.435L353.565 625.193C353.388 622.897 355.155 620.778 357.628 620.778H441.011C443.484 620.778 445.251 622.897 445.074 625.193L435.888 709.435C435.534 711.555 433.768 712.967 431.825 712.967Z" fill="#C60217"/>
<path opacity="0.5" d="M353.035 620.778L354.625 635.966H443.661L445.427 620.778H353.035Z" fill="#AC0114"/>
<path d="M450.374 630.138H347.912C345.792 630.138 344.026 628.372 344.026 626.253V617.069C344.026 614.95 345.792 613.184 347.912 613.184H450.374C452.494 613.184 454.26 614.95 454.26 617.069V626.253C454.437 628.372 452.67 630.138 450.374 630.138Z" fill="#C60217"/>
<path opacity="0.5" d="M430.941 553.313L416.985 562.85L417.869 546.072L404.443 535.829L420.695 531.414L425.642 517.462C425.995 516.755 426.878 516.579 427.408 517.285L435.534 529.824L452.317 530.178L441.717 543.247L446.487 559.318L430.941 553.313Z" fill="#011F1C"/>
<path d="M428.998 550.664L415.042 560.201L415.925 543.423L402.499 533.18L418.752 528.765L423.698 514.813C424.052 514.106 424.935 513.93 425.465 514.636L433.591 527.175L450.374 527.529L439.774 540.598L444.544 556.669L428.998 550.664Z" fill="#97D700"/>
<path d="M427.762 517.992L427.408 514.106C427.408 513.753 427.055 513.576 426.878 513.576H426.702C426.525 512.34 426.348 509.868 424.405 509.868C422.462 509.868 422.638 512.517 422.815 513.93H422.638C422.285 513.93 422.109 514.283 422.109 514.459L422.285 518.345L427.762 517.992ZM425.995 513.753L424.758 513.93L423.522 514.106C423.522 513.223 423.345 510.927 424.405 510.927C425.465 510.927 425.818 512.87 425.995 513.753Z" fill="#E48F4F"/>
<path opacity="0.5" d="M427.231 516.402L427.055 515.166C427.055 514.636 426.525 514.106 425.818 514.106H424.581C424.581 514.106 424.405 514.106 424.581 514.283C425.818 514.989 426.525 515.872 426.878 516.579C427.231 516.932 427.231 516.402 427.231 516.402Z" fill="white"/>
<path opacity="0.5" d="M428.115 522.23L432.355 528.235C432.708 528.765 433.238 528.941 433.945 528.941L442.601 529.295L432.708 531.414C431.648 531.59 430.588 531.061 430.235 530.001L428.115 522.23Z" fill="white" fill-opacity="0.7"/>
<path opacity="0.3" d="M410.272 534.946L417.692 540.951C418.222 541.481 418.575 542.187 418.575 542.893L417.162 555.256L422.638 541.481C423.168 540.244 422.462 539.008 421.225 538.478L410.272 534.946Z" fill="white" fill-opacity="0.7"/>
<path opacity="0.5" d="M374.057 412.204L358.158 416.089L367.874 398.781L358.865 383.77L375.117 387.655L385.01 376.705C385.54 376.176 384.834 375.822 385.01 376.705L387.483 391.364L404.796 398.605L391.9 405.846L388.897 425.096L374.057 412.204Z" fill="#003632"/>
<path d="M375.294 408.495L358.865 412.027L366.108 396.839L357.805 382.18L374.587 384.476L384.48 373.526C385.01 372.996 386.07 373.173 386.247 374.056L388.897 388.715L404.266 395.602L389.427 403.55L387.66 420.327L375.294 408.495Z" fill="#97D700"/>
<path d="M386.777 377.942L387.837 374.233C387.837 373.88 387.837 373.703 387.483 373.526H387.307C387.66 372.29 388.367 369.994 386.6 369.288C384.834 368.581 383.95 371.054 383.597 372.29H383.42C383.067 372.113 382.89 372.29 382.714 372.643L381.477 376.352L386.777 377.942ZM386.777 373.173L385.54 372.82L384.304 372.467C384.657 371.584 385.364 369.464 386.423 369.818C387.66 370.347 386.953 372.467 386.777 373.173Z" fill="#E48F4F"/>
<path opacity="0.5" d="M386.777 376.352L387.13 375.116C387.307 374.586 386.953 373.88 386.423 373.703L385.363 373.173C385.363 373.173 385.187 373.173 385.187 373.35C386.07 374.409 386.423 375.469 386.423 376.352C386.6 376.705 386.777 376.352 386.777 376.352Z" fill="white"/>
<path opacity="0.5" d="M385.363 381.827L386.953 389.068C387.13 389.598 387.483 390.127 388.013 390.304L395.786 394.013L385.893 392.07C384.833 391.894 384.127 391.011 384.127 389.951L385.363 381.827Z" fill="white" fill-opacity="0.7"/>
<path opacity="0.3" d="M363.988 386.772L368.581 395.073C368.934 395.779 368.934 396.485 368.581 397.192L362.575 408.142L372.821 397.545C373.704 396.662 373.704 395.073 372.644 394.366L363.988 386.772Z" fill="white" fill-opacity="0.7"/>
<path opacity="0.5" d="M451.964 279.041L442.954 288.578L441.894 272.683L429.351 266.502L442.071 262.086L444.014 250.43C444.191 249.724 443.484 249.9 444.014 250.43L451.964 259.261L466.803 256.612L461.326 267.031L467.686 281.337L451.964 279.041Z" fill="#003632"/>
<path d="M451.08 276.039L441.541 285.575L439.774 272.153L427.762 265.972L439.951 260.144L441.894 248.488C442.071 247.781 442.778 247.605 443.307 248.134L451.434 256.788L464.683 254.669L458.147 266.502L464.153 278.511L451.08 276.039Z" fill="#97D700"/>
<path d="M445.604 250.607L444.721 247.605C444.721 247.428 444.368 247.251 444.191 247.251C443.838 246.192 443.308 244.426 441.894 244.779C440.481 244.955 440.834 247.251 441.188 248.134C441.011 248.134 440.834 248.488 440.834 248.664L441.541 251.667L445.604 250.607ZM443.484 247.428L442.601 247.605L441.718 247.781C441.541 247.075 441.188 245.309 442.071 245.132C442.778 245.132 443.308 246.722 443.484 247.428Z" fill="#E48F4F"/>
<path opacity="0.5" d="M444.898 249.371L444.721 248.488C444.544 247.958 444.191 247.781 443.661 247.781L442.778 247.958C442.778 247.958 442.601 247.958 442.778 248.134C443.661 248.311 444.368 249.017 444.898 249.371C444.898 249.724 444.898 249.371 444.898 249.371Z" fill="white"/>
<path opacity="0.5" d="M446.311 253.786L450.55 258.025C450.904 258.378 451.434 258.554 451.787 258.378L458.677 257.495L451.08 260.497C450.374 260.85 449.314 260.497 448.96 259.791L446.311 253.786Z" fill="white" fill-opacity="0.7"/>
<path opacity="0.3" d="M434.121 266.325L440.834 270.034C441.364 270.387 441.717 270.917 441.717 271.447L442.424 281.337L444.721 269.857C444.897 268.798 444.191 267.915 443.307 267.738L434.121 266.325Z" fill="white" fill-opacity="0.7"/>
<path opacity="0.5" d="M399.85 163.363L388.19 166.542L394.903 153.473L388.014 142.523L400.203 144.995L407.269 136.695C407.623 136.165 407.093 136.165 407.269 136.695L409.389 147.468L422.285 152.589L412.922 158.064L410.979 172.37L399.85 163.363Z" fill="#004C45"/>
<path d="M400.556 160.713L388.367 163.539L393.49 152.236L386.953 141.64L399.32 142.876L406.386 134.575C406.739 134.046 407.446 134.222 407.622 134.929L409.919 145.702L421.402 150.47L410.626 156.651L409.566 169.014L400.556 160.713Z" fill="#97D700"/>
<path d="M408.506 137.931L409.212 135.105C409.212 134.929 409.212 134.752 408.859 134.575C409.036 133.692 409.566 131.926 408.329 131.396C407.093 130.867 406.386 132.809 406.209 133.692C406.033 133.692 405.856 133.692 405.679 133.869L404.796 136.695L408.506 137.931ZM408.329 134.399L407.446 134.222L406.563 134.046C406.739 133.339 407.269 131.75 408.153 132.103C408.859 132.28 408.506 133.869 408.329 134.399Z" fill="#E48F4F"/>
<path opacity="0.5" d="M408.329 136.695L408.506 135.812C408.682 135.458 408.329 134.929 407.976 134.752L407.092 134.399C407.092 134.399 406.916 134.399 407.092 134.399C407.976 135.282 408.152 135.988 408.329 136.695C408.329 137.048 408.329 136.695 408.329 136.695Z" fill="white"/>
<path opacity="0.5" d="M407.446 140.757L408.683 146.055C408.859 146.408 409.213 146.761 409.566 146.938L415.396 149.587L407.976 148.351C407.269 148.174 406.563 147.468 406.739 146.761L407.446 140.757Z" fill="white" fill-opacity="0.7"/>
<path opacity="0.3" d="M391.9 144.819L395.433 150.823C395.786 151.353 395.786 151.883 395.433 152.413L391.193 160.537L398.613 152.589C399.32 151.883 399.143 150.823 398.436 150.117L391.9 144.819Z" fill="white" fill-opacity="0.7"/>
<path opacity="0.5" d="M528.81 515.873C531.283 523.82 526.867 532.474 518.917 534.946C510.967 537.419 502.311 533.003 499.838 525.056C497.365 517.109 501.781 508.455 509.731 505.982C517.68 503.51 526.337 507.749 528.81 515.873Z" fill="#011F1C"/>
<path d="M531.106 513.4C533.58 521.347 529.163 530.001 521.214 532.474C513.264 534.946 504.608 530.531 502.135 522.584C499.661 514.636 504.078 505.982 512.027 503.51C519.977 501.037 528.633 505.453 531.106 513.4Z" fill="#FF7A00"/>
<path opacity="0.3" d="M515.207 528.059C511.674 526.822 507.611 525.056 507.258 519.405C506.551 514.46 503.371 515.166 504.431 520.641C507.611 531.767 518.21 529.118 515.207 528.059Z" fill="white" fill-opacity="0.7"/>
<path opacity="0.5" d="M527.75 516.049C526.69 518.345 525.453 514.636 522.803 512.694C520.154 510.751 517.15 510.927 518.21 508.808C519.27 506.689 522.273 506.512 524.923 508.455C527.397 510.398 528.81 513.753 527.75 516.049Z" fill="white" fill-opacity="0.7"/>
<path d="M512.203 504.04C510.436 504.57 508.493 503.157 507.61 500.684C506.903 498.212 507.61 495.916 509.376 495.209C511.143 494.68 513.086 496.092 513.969 498.565C514.853 501.037 513.969 503.333 512.203 504.04ZM509.73 496.269C508.67 496.622 508.14 498.388 508.67 500.154C509.2 501.921 510.613 503.157 511.673 502.804C512.733 502.45 513.263 500.684 512.733 498.918C512.379 497.152 510.966 495.916 509.73 496.269Z" fill="#F9D064"/>
<path d="M516.09 502.804L515.03 499.448C514.854 499.095 514.5 498.918 514.147 498.918C511.674 499.271 509.554 499.801 507.787 500.861C507.434 501.038 507.257 501.391 507.257 501.744L508.317 505.1C511.321 505.1 513.794 504.217 516.09 502.804Z" fill="#F9D064"/>
<path opacity="0.5" d="M515.031 501.744L514.677 500.508C514.501 499.978 513.971 499.625 513.264 499.625L512.027 499.801C512.027 499.801 511.851 499.801 512.027 499.978C513.441 500.508 514.324 501.214 515.031 501.744C515.031 502.274 515.031 501.744 515.031 501.744Z" fill="white"/>
<path opacity="0.5" d="M321.237 503.51C319.293 511.634 311.167 516.756 303.041 514.99C294.915 513.047 289.792 504.923 291.558 496.799C293.501 488.675 301.628 483.553 309.754 485.319C318.057 487.262 323.18 495.386 321.237 503.51Z" fill="#011F1C"/>
<path d="M322.473 505.276C318.587 512.694 309.401 515.52 301.981 511.634C294.562 507.749 291.735 498.565 295.622 491.148C299.508 483.73 308.694 480.904 316.114 484.79C323.533 488.675 326.36 497.859 322.473 505.276Z" fill="#FF7A00"/>
<path opacity="0.3" d="M300.921 504.217C299.331 500.861 297.741 496.799 301.451 492.56C304.454 488.675 301.628 486.732 298.625 491.501C292.795 501.567 302.334 507.219 300.921 504.217Z" fill="white" fill-opacity="0.7"/>
<path opacity="0.5" d="M318.233 504.57C315.937 505.453 317.527 501.921 317.173 498.742C316.82 495.386 314.347 493.444 316.644 492.737C318.94 491.854 321.06 493.973 321.59 497.152C321.943 500.508 320.53 503.863 318.233 504.57Z" fill="white" fill-opacity="0.7"/>
<path d="M315.76 485.143C314.17 484.26 313.817 481.787 315.054 479.491C316.29 477.195 318.41 476.136 320.177 477.019C321.767 477.902 322.12 480.374 320.883 482.67C319.647 484.966 317.35 486.026 315.76 485.143ZM319.47 478.079C318.41 477.549 316.82 478.432 315.937 480.198C315.054 481.787 315.23 483.73 316.29 484.26C317.35 484.79 318.94 483.907 319.823 482.14C320.707 480.374 320.53 478.608 319.47 478.079Z" fill="#F9D064"/>
<path d="M319.293 487.086L320.883 483.907C321.06 483.553 320.883 483.2 320.53 483.024C318.587 481.611 316.644 480.551 314.7 480.021C314.347 479.845 313.994 480.021 313.817 480.374L312.227 483.553C314.347 485.319 316.644 486.556 319.293 487.086Z" fill="#F9D064"/>
<path opacity="0.5" d="M319.293 485.673L319.823 484.613C320.177 484.083 320 483.377 319.47 483.023L318.587 482.317C318.587 482.317 318.41 482.14 318.41 482.317C319.117 483.553 319.117 484.79 319.117 485.496C319.117 486.026 319.293 485.673 319.293 485.673Z" fill="white"/>
<path opacity="0.5" d="M481.112 370.7C486.235 377.235 485.175 386.772 478.639 392.07C472.102 397.192 462.563 396.132 457.263 389.598C452.14 383.063 453.2 373.526 459.736 368.228C466.449 362.93 475.989 363.989 481.112 370.7Z" fill="#003632"/>
<path d="M483.666 385.567C488.594 378.778 487.084 369.281 480.293 364.355C473.503 359.428 464.003 360.938 459.075 367.727C454.148 374.515 455.658 384.012 462.448 388.939C469.239 393.865 478.738 392.355 483.666 385.567Z" fill="#FF7A00"/>
<path opacity="0.3" d="M470.866 386.772C467.333 385.889 463.093 384.476 462.033 379.001C460.796 374.233 457.617 375.116 459.383 380.591C463.8 391.364 474.046 387.478 470.866 386.772Z" fill="white" fill-opacity="0.7"/>
<path opacity="0.5" d="M482.172 373.526C481.465 375.822 479.699 372.467 476.872 370.7C474.046 368.934 471.043 369.464 471.749 367.168C472.456 364.872 475.459 364.343 478.286 366.109C481.289 367.875 482.879 371.23 482.172 373.526Z" fill="white" fill-opacity="0.7"/>
<path d="M465.389 363.283C463.623 363.989 461.503 362.753 460.443 360.281C459.383 357.985 459.913 355.512 461.68 354.806C463.446 354.099 465.566 355.336 466.626 357.808C467.686 359.927 467.156 362.4 465.389 363.283ZM462.21 355.865C461.15 356.395 460.796 358.161 461.68 359.927C462.386 361.694 463.976 362.753 465.036 362.223C466.096 361.694 466.449 359.927 465.566 358.161C464.859 356.395 463.27 355.336 462.21 355.865Z" fill="#F9D064"/>
<path d="M469.276 361.694L467.863 358.338C467.686 357.985 467.333 357.808 466.979 357.985C464.683 358.515 462.563 359.398 460.973 360.634C460.62 360.811 460.443 361.164 460.62 361.517L462.033 364.873C464.506 364.343 466.979 363.283 469.276 361.694Z" fill="#F9D064"/>
<path opacity="0.5" d="M468.039 360.811L467.509 359.751C467.333 359.221 466.626 358.868 466.096 359.044L465.036 359.398C465.036 359.398 464.86 359.574 465.036 359.574C466.273 359.574 467.333 360.281 468.039 360.811C468.216 361.164 468.039 360.811 468.039 360.811Z" fill="white"/>
<path opacity="0.5" d="M362.222 265.266C362.398 273.566 355.862 280.631 347.382 280.807C339.079 280.984 332.013 274.449 331.836 265.972C331.66 257.671 338.196 250.607 346.676 250.43C354.979 250.254 362.045 256.788 362.222 265.266Z" fill="#003632"/>
<path d="M363.635 266.502C361.692 274.626 353.565 279.747 345.262 277.805C337.136 275.862 332.013 267.738 333.956 259.437C335.899 251.314 344.026 246.192 352.329 248.135C360.632 250.254 365.578 258.378 363.635 266.502Z" fill="#FF7A00"/>
<path opacity="0.3" d="M342.436 270.917C340.139 268.091 337.489 264.382 340.139 259.437C342.083 254.846 338.903 253.786 337.136 259.084C333.956 270.21 344.556 273.389 342.436 270.917Z" fill="white" fill-opacity="0.7"/>
<path opacity="0.5" d="M359.395 267.031C357.452 268.444 358.159 264.736 356.922 261.557C355.685 258.378 353.036 257.141 354.979 255.729C356.922 254.316 359.572 255.729 360.808 258.908C362.045 261.91 361.515 265.619 359.395 267.031Z" fill="white" fill-opacity="0.7"/>
<path d="M352.329 248.664C350.562 248.311 349.503 245.839 350.209 243.366C350.739 240.894 352.682 239.127 354.449 239.657C356.215 240.011 357.275 242.483 356.569 244.956C355.862 247.428 354.096 249.194 352.329 248.664ZM354.096 240.894C353.036 240.54 351.622 241.953 351.269 243.719C350.916 245.485 351.446 247.251 352.506 247.605C353.566 247.958 354.979 246.545 355.332 244.779C355.862 242.836 355.332 241.07 354.096 240.894Z" fill="#F9D064"/>
<path d="M356.215 249.724L357.099 246.192C357.275 245.838 356.922 245.485 356.569 245.309C354.272 244.249 352.152 243.719 350.209 243.719C349.856 243.542 349.502 243.896 349.326 244.249L348.442 247.781C350.916 249.194 353.565 249.724 356.215 249.724Z" fill="#F9D064"/>
<path opacity="0.5" d="M355.862 248.311L356.215 247.075C356.392 246.545 356.039 245.839 355.509 245.662L354.449 245.309C354.449 245.309 354.272 245.309 354.449 245.485C355.509 246.545 355.862 247.605 355.862 248.488C355.685 248.664 355.862 248.311 355.862 248.311Z" fill="white"/>
<path d="M570.501 468.542C557.252 472.25 543.649 475.076 530.046 476.842C516.267 478.432 502.488 479.315 488.532 478.961C474.576 478.608 460.796 477.195 447.194 474.723C433.591 472.25 419.989 468.895 406.739 464.833C393.49 460.771 380.594 456.179 367.698 451.587C354.802 446.819 342.082 442.227 329.01 437.988C316.114 433.926 303.041 430.218 289.615 428.275C276.189 426.332 262.586 425.979 248.984 427.392C248.63 427.392 248.277 427.215 248.277 426.862C248.277 426.509 248.454 426.156 248.807 426.156C262.233 423.153 276.366 422.623 290.145 423.683C304.101 424.919 317.704 427.922 330.953 431.63C357.628 439.225 383.067 449.468 409.212 457.239C422.285 461.301 435.358 464.656 448.607 467.305C461.856 469.954 475.282 471.721 488.885 472.604C502.488 473.487 516.09 473.31 529.516 472.427C543.119 471.544 556.545 469.601 570.148 467.482C570.501 467.482 571.031 467.659 571.031 468.188C571.031 468.188 570.854 468.542 570.501 468.542Z" fill="#FF7A00"/>
<path d="M487.825 233.299C473.516 234.536 458.853 232.946 444.721 229.591C437.654 228.001 430.765 226.059 423.875 224.116L413.629 221.113C410.272 220.054 406.916 219.171 403.383 218.288C389.78 214.579 376.177 211.93 362.221 211.047C348.265 210.164 334.309 211.223 320 212.813C319.647 212.813 319.47 212.636 319.47 212.283C319.47 212.106 319.647 211.753 319.824 211.753C333.426 207.338 347.735 204.866 362.398 204.689C366.108 204.689 369.641 204.512 373.351 205.042C377.061 205.395 380.594 205.572 384.127 206.102C387.66 206.632 391.37 207.161 394.903 208.044L400.203 209.104C401.969 209.457 403.736 209.987 405.503 210.34C409.036 211.223 412.392 212.283 415.925 213.343C419.459 214.402 422.815 215.285 426.172 216.522L436.241 219.701L446.311 222.703C459.737 226.588 473.516 229.237 487.648 230.474C488.355 230.474 489.062 231.18 488.885 232.063C489.062 232.77 488.532 233.299 487.825 233.299Z" fill="#FF7A00"/>
<path d="M398.966 564.793C380.417 566.029 361.515 562.497 343.849 557.022C335.016 554.373 326.36 550.841 317.704 547.485C309.224 543.953 300.744 540.068 292.441 536.182L267.533 524.526C259.23 520.641 250.927 516.932 242.447 513.4C225.665 506.689 208.176 501.037 189.98 499.624C189.627 499.624 189.273 499.271 189.273 498.741C189.273 498.388 189.627 498.035 189.98 498.035C199.343 497.329 208.706 498.212 217.892 499.801C227.078 501.567 236.088 504.04 244.921 507.042C253.753 510.044 262.233 513.577 270.889 517.285C279.369 520.994 287.672 524.879 296.151 528.588C304.454 532.474 312.757 536.359 321.06 540.068C329.363 543.777 337.843 547.132 346.322 550.311C363.281 556.492 380.947 561.261 399.143 562.674C399.673 562.674 400.203 563.203 400.026 563.733C399.849 564.44 399.319 564.793 398.966 564.793Z" fill="#FF7A00"/>
<path d="M348.089 131.75C355.508 132.456 362.751 131.043 370.348 129.1L381.654 126.098C385.54 125.038 389.427 124.155 393.313 123.272C395.257 122.919 397.2 122.389 399.32 122.213C401.263 121.86 403.383 121.506 405.326 121.33L411.332 120.8C413.452 120.623 415.396 120.623 417.515 120.623C425.642 120.623 433.768 121.86 441.541 124.332C442.071 124.509 442.424 125.215 442.248 125.745C442.071 126.275 441.541 126.628 441.011 126.628C433.061 126.275 425.465 126.451 417.692 127.158C410.096 128.041 402.499 129.454 394.903 131.22C387.307 132.986 379.711 135.105 371.761 136.695C367.698 137.401 363.635 138.107 359.395 138.107C355.155 138.284 350.915 137.578 346.852 136.341C345.616 135.988 345.086 134.752 345.439 133.516C345.969 132.279 347.029 131.75 348.089 131.75Z" fill="#FF7A00"/>
<path d="M369.111 151.883C371.355 151.883 373.174 150.064 373.174 147.821C373.174 145.578 371.355 143.759 369.111 143.759C366.867 143.759 365.048 145.578 365.048 147.821C365.048 150.064 366.867 151.883 369.111 151.883Z" fill="white"/>
<path d="M397.906 199.921C400.15 199.921 401.969 198.102 401.969 195.859C401.969 193.615 400.15 191.797 397.906 191.797C395.662 191.797 393.843 193.615 393.843 195.859C393.843 198.102 395.662 199.921 397.906 199.921Z" fill="white"/>
<path d="M431.471 244.602C433.715 244.602 435.534 242.784 435.534 240.54C435.534 238.297 433.715 236.478 431.471 236.478C429.227 236.478 427.408 238.297 427.408 240.54C427.408 242.784 429.227 244.602 431.471 244.602Z" fill="white"/>
<path d="M297.565 370.877C299.809 370.877 301.628 369.059 301.628 366.815C301.628 364.572 299.809 362.753 297.565 362.753C295.321 362.753 293.501 364.572 293.501 366.815C293.501 369.059 295.321 370.877 297.565 370.877Z" fill="white"/>
<path d="M240.857 539.891C243.101 539.891 244.92 538.072 244.92 535.829C244.92 533.586 243.101 531.767 240.857 531.767C238.613 531.767 236.794 533.586 236.794 535.829C236.794 538.072 238.613 539.891 240.857 539.891Z" fill="white"/>
<path d="M491.711 549.075C491.711 551.371 489.945 553.137 487.648 553.137C485.352 553.137 483.585 551.371 483.585 549.075C483.585 546.779 485.352 545.013 487.648 545.013C489.945 545.013 491.711 546.779 491.711 549.075Z" fill="white"/>
<path d="M360.985 494.856C363.229 494.856 365.048 493.038 365.048 490.794C365.048 488.551 363.229 486.732 360.985 486.732C358.741 486.732 356.922 488.551 356.922 490.794C356.922 493.038 358.741 494.856 360.985 494.856Z" fill="white"/>
<path d="M510.791 405.139C510.791 407.435 509.024 409.201 506.727 409.201C504.431 409.201 502.664 407.435 502.664 405.139C502.664 402.843 504.431 401.077 506.727 401.077C508.847 401.077 510.791 402.843 510.791 405.139Z" fill="white"/>
<path d="M428.468 178.904C428.468 180.14 427.585 181.023 426.348 181.023C425.112 181.023 424.228 180.14 424.228 178.904C424.228 177.668 425.112 176.785 426.348 176.785C427.585 176.785 428.468 177.668 428.468 178.904Z" fill="white"/>
<path d="M410.802 278.864C410.802 280.101 409.919 280.984 408.682 280.984C407.446 280.984 406.562 280.101 406.562 278.864C406.562 277.628 407.446 276.745 408.682 276.745C409.742 276.745 410.802 277.805 410.802 278.864Z" fill="white"/>
<path d="M429.881 358.691C429.881 359.928 428.998 360.811 427.761 360.811C426.525 360.811 425.642 359.928 425.642 358.691C425.642 357.455 426.525 356.572 427.761 356.572C428.821 356.572 429.881 357.455 429.881 358.691Z" fill="white"/>
<path d="M327.95 403.196C327.95 404.433 327.067 405.316 325.83 405.316C324.593 405.316 323.71 404.433 323.71 403.196C323.71 401.96 324.593 401.077 325.83 401.077C327.067 401.077 327.95 401.96 327.95 403.196Z" fill="white"/>
<path d="M275.306 478.785C275.306 480.021 274.422 480.904 273.186 480.904C271.949 480.904 271.066 480.021 271.066 478.785C271.066 477.549 271.949 476.666 273.186 476.666C274.422 476.666 275.306 477.725 275.306 478.785Z" fill="white"/>
<path d="M494.008 483.73C494.008 484.966 493.125 485.849 491.888 485.849C490.652 485.849 489.768 484.966 489.768 483.73C489.768 482.494 490.652 481.611 491.888 481.611C492.948 481.611 494.008 482.67 494.008 483.73Z" fill="white"/>
<path d="M388.897 538.832C388.897 540.068 388.013 540.951 386.777 540.951C385.54 540.951 384.657 540.068 384.657 538.832C384.657 537.595 385.54 536.712 386.777 536.712C388.013 536.712 388.897 537.595 388.897 538.832Z" fill="white"/>
<path d="M344.026 230.121C344.026 231.357 343.142 232.24 341.906 232.24C340.669 232.24 339.786 231.357 339.786 230.121C339.786 228.884 340.669 228.001 341.906 228.001C343.142 228.001 344.026 228.884 344.026 230.121Z" fill="white"/>
<path d="M716.42 684.004H615.902V714.557H716.42V684.004Z" fill="#78BE20"/>
<path d="M626.855 695.306C626.855 696.19 626.148 696.719 625.442 696.719C624.559 696.719 624.029 696.013 624.029 695.306C624.029 694.423 624.735 693.894 625.442 693.894C626.148 693.717 626.855 694.423 626.855 695.306Z" fill="white"/>
<path d="M654.06 695.306C654.06 696.19 653.353 696.719 652.646 696.719C651.763 696.719 651.233 696.013 651.233 695.306C651.233 694.423 651.94 693.894 652.646 693.894C653.353 693.717 654.06 694.423 654.06 695.306Z" fill="white"/>
<path d="M681.265 695.306C681.265 696.19 680.559 696.719 679.852 696.719C678.969 696.719 678.439 696.013 678.439 695.306C678.439 694.423 679.146 693.894 679.852 693.894C680.559 693.717 681.265 694.423 681.265 695.306Z" fill="white"/>
<path d="M708.47 695.306C708.47 696.19 707.764 696.719 707.057 696.719C706.174 696.719 705.644 696.013 705.644 695.306C705.644 694.423 706.35 693.894 707.057 693.894C707.764 693.717 708.47 694.423 708.47 695.306Z" fill="white"/>
<path d="M640.457 702.371C640.457 703.254 639.751 703.784 639.044 703.784C638.161 703.784 637.631 703.077 637.631 702.371C637.631 701.488 638.337 700.958 639.044 700.958C639.751 700.781 640.457 701.488 640.457 702.371Z" fill="white"/>
<path d="M667.663 702.371C667.663 703.254 666.956 703.784 666.25 703.784C665.366 703.784 664.836 703.077 664.836 702.371C664.836 701.488 665.543 700.958 666.25 700.958C666.956 700.781 667.663 701.488 667.663 702.371Z" fill="white"/>
<path d="M694.868 702.371C694.868 703.254 694.161 703.784 693.455 703.784C692.571 703.784 692.041 703.077 692.041 702.371C692.041 701.488 692.748 700.958 693.455 700.958C694.161 700.781 694.868 701.488 694.868 702.371Z" fill="white"/>
<path d="M626.855 709.435C626.855 710.318 626.148 710.848 625.441 710.848C624.558 710.848 624.028 710.142 624.028 709.435C624.028 708.729 624.735 708.022 625.441 708.022C626.148 708.022 626.855 708.552 626.855 709.435Z" fill="white"/>
<path d="M654.06 709.435C654.06 710.318 653.353 710.848 652.646 710.848C651.763 710.848 651.233 710.142 651.233 709.435C651.233 708.729 651.94 708.022 652.646 708.022C653.353 708.022 654.06 708.552 654.06 709.435Z" fill="white"/>
<path d="M681.265 709.435C681.265 710.318 680.559 710.848 679.852 710.848C678.969 710.848 678.439 710.142 678.439 709.435C678.439 708.729 679.145 708.022 679.852 708.022C680.559 708.022 681.265 708.552 681.265 709.435Z" fill="white"/>
<path d="M708.47 709.435C708.47 710.318 707.764 710.848 707.057 710.848C706.174 710.848 705.644 710.142 705.644 709.435C705.644 708.729 706.35 708.022 707.057 708.022C707.764 708.022 708.47 708.552 708.47 709.435Z" fill="white"/>
<path opacity="0.5" d="M615.902 684.004V691.951L716.067 694.07L716.42 684.004H615.902Z" fill="#077D52"/>
<path d="M719.247 679.412H613.429V688.949H719.247V679.412Z" fill="#1E9B6D"/>
<path d="M238.031 641.088C238.031 641.088 241.741 657.336 223.192 657.336H232.201C232.201 657.336 246.864 657.159 246.864 643.56L238.031 641.088Z" fill="#EDAB02"/>
<path d="M223.368 657.336C223.368 657.336 221.424 647.799 235.734 641.088C237.324 640.381 238.913 640.381 240.503 640.911L247.04 643.56C247.04 643.56 233.437 647.975 227.961 657.336H223.368Z" fill="#FFB800"/>
<path d="M208.529 641.088C208.529 641.088 204.819 657.336 223.368 657.336H214.359C214.359 657.336 199.696 657.159 199.696 643.56L208.529 641.088Z" fill="#EDAB02"/>
<path d="M223.369 657.336C223.369 657.336 225.312 647.799 211.003 641.088C209.413 640.381 207.823 640.381 206.233 640.911L199.697 643.56C199.697 643.56 213.299 647.975 218.776 657.336H223.369Z" fill="#FFB800"/>
<path d="M226.372 656.629C226.372 659.278 224.958 661.398 223.368 661.398C221.779 661.398 220.365 659.278 220.365 656.629C220.365 653.98 221.779 651.861 223.368 651.861C224.958 651.861 226.372 653.98 226.372 656.629Z" fill="#EDAB02"/>
<path d="M253.93 729.392H194.75L198.636 657.336H250.044L253.93 729.392Z" fill="#FF7A00"/>
<path d="M252.517 657.336H195.456V666.166H252.517V657.336Z" fill="#FF8C2C"/>
<path d="M228.668 657.336H217.892V729.392H228.668V657.336Z" fill="#FFB800"/>
<path d="M461.327 641.794H456.38C455.32 641.794 454.437 642.677 454.437 643.737C454.437 646.739 454.614 654.687 457.087 661.398H460.443C463.093 654.687 463.27 646.739 463.093 643.737C463.27 642.677 462.387 641.794 461.327 641.794Z" fill="#FF7A00"/>
<path d="M474.046 644.62C474.046 644.62 477.756 661.221 459.03 661.221H468.04C468.04 661.221 482.879 661.044 482.879 647.269L474.046 644.62Z" fill="#E76303"/>
<path d="M459.03 661.221C459.03 661.221 457.087 651.508 471.573 644.62C473.163 643.914 474.929 643.914 476.519 644.443L483.056 647.269C483.056 647.269 469.276 651.861 463.623 661.221H459.03Z" fill="#FF7A00"/>
<path d="M444.014 644.62C444.014 644.62 440.304 661.221 459.03 661.221H450.021C450.021 661.221 435.181 661.044 435.181 647.269L444.014 644.62Z" fill="#E76303"/>
<path d="M459.03 661.221C459.03 661.221 460.973 651.508 446.487 644.62C444.897 643.914 443.131 643.914 441.541 644.443L435.005 647.269C435.005 647.269 448.784 651.861 454.437 661.221H459.03Z" fill="#FF7A00"/>
<path d="M462.033 660.515C462.033 663.164 460.62 665.283 459.03 665.283C457.263 665.283 456.027 663.164 456.027 660.515C456.027 657.866 457.44 655.746 459.03 655.746C460.797 655.746 462.033 658.042 462.033 660.515Z" fill="#E76303"/>
<path d="M557.252 661.221H427.761V724.8H557.252V661.221Z" fill="#78BE20"/>
<path d="M557.252 685.946H427.761V700.251H557.252V685.946Z" fill="#FF7A00"/>
<path d="M466.096 661.221H451.787V724.8H466.096V661.221Z" fill="#FF7A00"/>
<path d="M583.927 679.588H506.727L510.791 724.977H576.861L583.927 679.588Z" fill="#97D700"/>
<path d="M506.727 679.588L536.053 708.376C539.232 711.555 544.356 711.731 547.889 708.905L583.927 679.588" fill="#0DB477"/>
<ellipse cx="317" cy="730.5" rx="30" ry="2.5" fill="#A4D0E3"/>
</svg>
